# xmcd
#
# Track frame offsets:
#	150
#	15720
#	27288
#	42248
#	55816
#	70291
#	87432
#	107194
#	116551
#	127841
#	131829
#	143591
#	176598
#	200424
#	209038
#	223642
#
# Disc length: 3448 seconds
#
# Revision: 0
# Processed by: cddbd v1.4PL0 Copyright (c) Steve Scherf et al.
# Submitted via: EasyCDDAExtractor 4.6.0.1
#
DISCID=ef0d7610
DTITLE=Bruno and Marrone - Acústico Pirata
DYEAR=1900
DGENRE=
TTITLE0=Feriado Nacional
TTITLE1=Somos Todos Iguais
TTITLE2=Amei Amei
TTITLE3=Programa De Fim De Semana
TTITLE4=Pra Que Fingir
TTITLE5=Será Que Me Esqueceu
TTITLE6=Queremos Mais
TTITLE7=Toca Toca Sanfoneiro
TTITLE8=Morena Proibida
TTITLE9=Tchau Amor
TTITLE10=ParabéNs Pra Nós Dois
TTITLE11=Agarrado Em Mim
TTITLE12=Faz De Conta
TTITLE13=Meu Segredo
TTITLE14=Preciso Amar De Novo
TTITLE15=Pot-Pourri Várias
EXTD=
EXTT0=
EXTT1=
EXTT2=
EXTT3=
EXTT4=
EXTT5=
EXTT6=
EXTT7=
EXTT8=
EXTT9=
EXTT10=
EXTT11=
EXTT12=
EXTT13=
EXTT14=
EXTT15=
PLAYORDER=
